<svg xmlns="http://www.w3.org/2000/svg" width="1200" height="675" viewBox="0 0 1200 675">
  <rect width="1200" height="675" fill="#07111f"/><text x="60" y="72" fill="white" font-family="Arial" font-size="38" font-weight="700">Evidence, Audit, and Observability</text>
  <text x="60" y="108" fill="#9fb5cc" font-family="Arial" font-size="19">One run identity connects every decision, execution record, and artifact</text>
  <circle cx="600" cy="330" r="105" fill="#30345f" stroke="#bf9cff" stroke-width="3"/><text x="600" y="315" fill="white" font-family="Arial" font-size="23" font-weight="700" text-anchor="middle">CertificationRun</text><text x="600" y="350" fill="#ded4f5" font-family="Arial" font-size="17" text-anchor="middle">correlation spine</text>
  <g font-family="Arial" text-anchor="middle"><rect x="70" y="160" width="260" height="85" rx="15" fill="#173b5f"/><text x="200" y="198" fill="white" font-size="20">Kubernetes State</text><text x="200" y="224" fill="#b7cee5" font-size="14">current status and links</text>
  <rect x="70" y="420" width="260" height="85" rx="15" fill="#173b5f"/><text x="200" y="458" fill="white" font-size="20">Logs and Traces</text><text x="200" y="484" fill="#b7cee5" font-size="14">execution debugging</text>
  <rect x="870" y="160" width="260" height="85" rx="15" fill="#244d45"/><text x="1000" y="198" fill="white" font-size="20">Immutable Evidence</text><text x="1000" y="224" fill="#c7eed6" font-size="14">results and artifacts</text>
  <rect x="870" y="420" width="260" height="85" rx="15" fill="#4b352b"/><text x="1000" y="458" fill="white" font-size="20">Audit and Metrics</text><text x="1000" y="484" fill="#f4dda4" font-size="14">history and operations</text></g>
  <path d="M330 202L510 285M330 463L510 375M690 285L870 202M690 375L870 463" stroke="#8bb8e8" stroke-width="4"/>
  <text x="600" y="585" fill="#ffd166" font-family="Arial" font-size="20" font-weight="700" text-anchor="middle">Logs explain execution. Evidence anchors the verdict. Audit proves the decision.</text>
</svg>
