<svg xmlns="http://www.w3.org/2000/svg" viewBox="0 0 960 480" font-family="Inter, -apple-system, BlinkMacSystemFont, 'Segoe UI', Roboto, sans-serif">
  <defs>
    <!-- Subtle glow for control plane -->
    <radialGradient id="cp-glow" cx="50%" cy="50%" r="50%">
      <stop offset="0%" stop-color="#4d8eff" stop-opacity="0.06"/>
      <stop offset="100%" stop-color="#4d8eff" stop-opacity="0"/>
    </radialGradient>
    <!-- Site box gradient fills (darker than hero bg #141416) -->
    <linearGradient id="site-fill" x1="0" y1="0" x2="0" y2="1">
      <stop offset="0%" stop-color="#0e0e10"/>
      <stop offset="100%" stop-color="#0c0c0e"/>
    </linearGradient>
  </defs>

  <!-- Background: transparent so hero bg (#141416) shows through -->
  <rect width="960" height="480" fill="none"/>

  <!-- ════════════════════════════════════════════════════════ -->
  <!-- Site-to-site connections (triangle edges, subtle)       -->
  <!-- ════════════════════════════════════════════════════════ -->

  <!-- Bare Metal <-> Public Cloud (left edge) -->
  <line x1="370" y1="160" x2="230" y2="315" stroke="#4d8eff" stroke-width="1.5" stroke-dasharray="6,4" opacity="0.4"/>
  <!-- Bare Metal <-> AI Infra (right edge) -->
  <line x1="590" y1="160" x2="730" y2="315" stroke="#4d8eff" stroke-width="1.5" stroke-dasharray="6,4" opacity="0.4"/>
  <!-- Public Cloud <-> AI Infra (bottom edge) -->
  <line x1="280" y1="385" x2="680" y2="385" stroke="#4d8eff" stroke-width="1.5" stroke-dasharray="6,4" opacity="0.4"/>

  <!-- ════════════════════════════════════════════════════════ -->
  <!-- Primary connections (center to vertices)                -->
  <!-- ════════════════════════════════════════════════════════ -->

  <!-- Control Plane <-> Bare Metal: Direct L3 (solid green) -->
  <line x1="480" y1="205" x2="480" y2="160" stroke="#34d399" stroke-width="2.5" opacity="0.8"/>
  <!-- Direct L3 label -->
  <rect x="498" y="172" width="68" height="18" rx="3" fill="#141416" fill-opacity="0.9"/>
  <text x="532" y="185" text-anchor="middle" fill="#34d399" font-size="9" font-weight="600">Direct L3</text>

  <!-- Control Plane <-> Public Cloud: WireGuard (dashed blue) -->
  <line x1="370" y1="300" x2="280" y2="340" stroke="#4d8eff" stroke-width="2.5" stroke-dasharray="8,5" opacity="0.7"/>
  <!-- WG label left -->
  <rect x="280" y="305" width="72" height="18" rx="3" fill="#141416" fill-opacity="0.9"/>
  <!-- lock icon -->
  <rect x="287" y="309" width="8" height="6" rx="1" fill="none" stroke="#4d8eff" stroke-width="0.8"/>
  <path d="M289,309 L289,306.5 A2.5,2.5 0 0,1 294,306.5 L294,309" fill="none" stroke="#4d8eff" stroke-width="0.8"/>
  <text x="322" y="319" text-anchor="middle" fill="#4d8eff" font-size="9" font-weight="600">WireGuard</text>

  <!-- Control Plane <-> AI Infra: WireGuard (dashed blue) -->
  <line x1="590" y1="300" x2="680" y2="340" stroke="#4d8eff" stroke-width="2.5" stroke-dasharray="8,5" opacity="0.7"/>
  <!-- WG label right -->
  <rect x="608" y="305" width="72" height="18" rx="3" fill="#141416" fill-opacity="0.9"/>
  <!-- lock icon -->
  <rect x="615" y="309" width="8" height="6" rx="1" fill="none" stroke="#4d8eff" stroke-width="0.8"/>
  <path d="M617,309 L617,306.5 A2.5,2.5 0 0,1 622,306.5 L622,309" fill="none" stroke="#4d8eff" stroke-width="0.8"/>
  <text x="650" y="319" text-anchor="middle" fill="#4d8eff" font-size="9" font-weight="600">WireGuard</text>

  <!-- ════════════════════════════════════════════════════════ -->
  <!-- CONTROL PLANE (center)                                  -->
  <!-- ════════════════════════════════════════════════════════ -->

  <!-- Glow backdrop -->
  <circle cx="480" cy="270" r="110" fill="url(#cp-glow)"/>

  <!-- Control plane box (same size as site boxes: 220x130) -->
  <rect x="370" y="205" width="220" height="130" rx="10" fill="#0e0e10" stroke="#2a2a2e" stroke-width="1.5"/>

  <!-- Kubernetes ship wheel (helm) icon — official K8s logo -->
  <!-- Source: https://github.com/kubernetes/kubernetes/blob/master/logo/logo.svg -->
  <!-- Scaled to ~50px tall, positioned left of text in control plane box -->
  <g transform="translate(382, 220) scale(0.068)">
    <path
       style="fill:#326ce5;fill-opacity:1;stroke:none"
       d="m 386.93188,178.59794 a 48.929668,48.529248 0 0 0 -18.75129,4.74509 L 112.30567,305.60274 A 48.929668,48.529248 0 0 0 85.831333,338.52385 L 22.705266,613.15006 a 48.929668,48.529248 0 0 0 6.643127,37.20805 48.929668,48.529248 0 0 0 2.781605,3.86153 L 209.23642,874.42456 a 48.929668,48.529248 0 0 0 38.25525,18.26042 l 284.01821,-0.0654 a 48.929668,48.529248 0 0 0 38.25525,-18.22769 L 746.8061,654.15419 a 48.929668,48.529248 0 0 0 9.45745,-41.06958 L 693.03931,338.4584 A 48.929668,48.529248 0 0 0 666.56498,305.53729 L 410.65734,183.34303 a 48.929668,48.529248 0 0 0 -23.72546,-4.74509 z"/>
    <path
       style="fill:#ffffff;fill-opacity:1;stroke:none"
       d="m 389.46729,272.05685 c -8.45813,8.6e-4 -15.31619,7.61928 -15.31519,17.01687 10e-6,0.14423 0.0295,0.28205 0.0327,0.42542 -0.0125,1.27691 -0.0741,2.81523 -0.0327,3.92697 0.20171,5.42027 1.38324,9.56871 2.09439,14.56252 1.28834,10.68834 2.36788,19.54832 1.70169,27.78333 -0.64789,3.10534 -2.93516,5.94534 -4.97417,7.91939 l -0.35997,6.4795 c -9.19102,0.76149 -18.44352,2.1559 -27.68515,4.25422 -39.76672,9.02908 -74.00517,29.5131 -100.07232,57.17016 -1.69145,-1.15393 -4.65062,-3.27681 -5.53054,-3.92697 -2.7344,0.36926 -5.49798,1.21295 -9.09748,-0.88357 -6.85378,-4.61354 -13.09606,-10.98183 -20.64933,-18.65311 -3.46095,-3.66956 -5.96724,-7.16386 -10.07923,-10.701 -0.9338,-0.80327 -2.35888,-1.88971 -3.40337,-2.71616 -3.21476,-2.56307 -7.00645,-3.89976 -10.66827,-4.02514 -4.70807,-0.16121 -9.24037,1.67954 -12.20634,5.39958 -5.27283,6.61342 -3.58466,16.72163 3.76335,22.58009 0.0746,0.0594 0.15396,0.10554 0.22907,0.16362 1.00973,0.81851 2.24619,1.86728 3.1743,2.55254 4.36352,3.22174 8.34948,4.87096 12.69721,7.42852 9.15979,5.65673 16.75337,10.34716 22.77644,16.00241 2.35201,2.50715 2.7631,6.925 3.07612,8.83568 l 4.90872,4.38512 c -26.27764,39.54584 -38.43915,88.39294 -31.2521,138.16395 l -6.41405,1.86531 c -1.69048,2.18299 -4.07925,5.61791 -6.57773,6.64313 -7.88026,2.48206 -16.74905,3.39352 -27.45608,4.51601 -5.02684,0.41799 -9.36418,0.16855 -14.69342,1.17809 -1.17293,0.2222 -2.80722,0.64798 -4.09059,0.94902 -0.0446,0.009 -0.0863,0.0226 -0.1309,0.0327 -0.07,0.0162 -0.16185,0.0502 -0.22907,0.0654 -9.02695,2.18109 -14.82588,10.47821 -12.95901,18.65312 1.86731,8.17682 10.68465,13.14935 19.76576,11.19187 0.0656,-0.015 0.16074,-0.0175 0.22907,-0.0327 0.10252,-0.0235 0.19278,-0.0732 0.29452,-0.0981 1.2659,-0.27788 2.85232,-0.58705 3.9597,-0.88357 5.23946,-1.40285 9.03407,-3.46407 13.7444,-5.26868 10.13362,-3.63457 18.52665,-6.67085 26.70341,-7.85395 3.41508,-0.26747 7.01316,2.10712 8.80296,3.10886 l 6.67585,-1.14537 c 15.3625,47.62926 47.55736,86.12636 88.32413,110.28245 l -2.7816,6.67585 c 1.0026,2.59224 2.10843,6.09958 1.36158,8.65957 -2.97265,7.70859 -8.0644,15.84504 -13.86244,24.91604 -2.80737,4.19078 -5.68053,7.44303 -8.21392,12.23906 -0.60622,1.14761 -1.37829,2.91048 -1.96348,4.12332 -3.93623,8.4219 -1.04891,18.12187 6.51223,21.76197 7.60863,3.66295 17.05297,-0.20037 21.14019,-8.63934 0.006,-0.0119 0.0269,-0.0207 0.0327,-0.0327 0.004,-0.009 -0.004,-0.0236 0,-0.0327 0.58217,-1.19647 1.40694,-2.76916 1.89804,-3.89424 2.16992,-4.97105 2.89194,-9.23107 4.41784,-14.03893 4.05224,-10.17885 6.27862,-20.85905 11.85692,-27.51404 1.52752,-1.82236 4.01788,-2.52321 6.59985,-3.21451 l 3.46882,-6.28315 c 35.53987,13.64156 75.32106,17.30219 115.06027,8.27936 9.06551,-2.05833 17.81739,-4.72226 26.27798,-7.91939 0.97492,1.72926 2.78672,5.05344 3.27248,5.89046 2.62384,0.85365 5.48775,1.29447 7.82122,4.74509 4.17347,7.13031 7.0276,15.56563 10.50465,25.75439 1.52615,4.80777 2.28038,9.06798 4.45057,14.03892 0.49463,1.13301 1.31527,2.72779 1.89803,3.92697 4.07863,8.46638 13.55289,12.34291 21.17292,8.67206 7.56021,-3.64203 10.45071,-13.34112 6.51223,-21.76196 -0.58526,-1.2128 -1.38994,-2.97575 -1.99621,-4.12332 -2.53364,-4.79589 -5.40634,-8.01572 -8.21392,-12.20634 -5.79852,-9.0707 -10.60772,-16.60606 -13.58077,-24.3145 -1.24313,-3.97574 0.20973,-6.44834 1.17809,-9.03203 -0.57991,-0.66473 -1.82087,-4.41925 -2.55253,-6.18498 42.36668,-25.0155 73.61612,-64.94823 88.29141,-111.06785 1.9817,0.31146 5.42607,0.92086 6.54495,1.14537 2.30334,-1.51916 4.42118,-3.50131 8.57389,-3.1743 8.17681,1.18266 16.5696,4.2199 26.7034,7.85394 4.71043,1.80438 8.50488,3.89883 13.7444,5.30141 1.1074,0.29645 2.69378,0.57303 3.9597,0.85085 0.10179,0.0249 0.19195,0.0748 0.29452,0.0981 0.0684,0.0153 0.16352,0.0177 0.22908,0.0327 9.08163,1.95506 17.90054,-3.01456 19.76575,-11.19187 1.86478,-8.17539 -3.93147,-16.47444 -12.959,-18.65311 -1.31311,-0.29859 -3.17535,-0.80569 -4.45057,-1.0472 -5.32929,-1.00926 -9.66655,-0.76036 -14.69342,-1.17809 -10.70708,-1.12194 -19.57569,-2.03437 -27.45607,-4.51601 -3.21306,-1.24646 -5.49884,-5.06971 -6.61046,-6.64313 l -6.18498,-1.79986 c 3.20678,-23.19994 2.3421,-47.34497 -3.20703,-71.50361 -5.60079,-24.38357 -15.49883,-46.68472 -28.69961,-66.33309 1.58655,-1.44229 4.58271,-4.09548 5.43231,-4.87599 0.24835,-2.74801 0.035,-5.62922 2.87978,-8.67206 6.02276,-5.65557 13.61694,-10.3452 22.77643,-16.00241 4.3476,-2.55779 8.36659,-4.20655 12.72993,-7.42852 0.98672,-0.7286 2.33409,-1.88243 3.37065,-2.71616 7.34646,-5.86043 9.03788,-15.96803 3.76335,-22.58009 -5.27453,-6.61205 -15.49543,-7.23487 -22.84188,-1.37444 -1.04569,0.82818 -2.4646,1.90853 -3.40338,2.71616 -4.1118,3.53737 -6.65119,7.03126 -10.11195,10.701 -7.55286,7.67168 -13.79578,14.07193 -20.64932,18.68584 -2.96985,1.72897 -7.31984,1.13073 -9.29389,1.01446 l -5.82501,4.15605 C 500.27311,376.86318 455.0492,354.59475 406.3533,350.26897 c -0.1362,-2.04069 -0.31463,-5.72937 -0.35997,-6.83948 -1.99355,-1.90762 -4.40179,-3.53622 -5.00689,-7.65759 -0.66619,-8.23501 0.44607,-17.09499 1.73441,-27.78333 0.71115,-4.99381 1.89268,-9.14225 2.09439,-14.56252 0.0459,-1.23215 -0.0277,-3.02011 -0.0327,-4.35239 -10e-4,-9.39759 -6.85705,-17.01772 -15.31518,-17.01687 z m -19.17671,118.79088 -4.54874,80.33929 -0.32725,0.16363 c -0.30509,7.18725 -6.22028,12.92628 -13.4826,12.92628 -2.97487,0 -5.72075,-0.95534 -7.95212,-2.58526 l -0.1309,0.0654 -65.87494,-46.69823 c 20.24605,-19.90834 46.14234,-34.62059 75.9869,-41.39683 5.45167,-1.23781 10.90091,-2.15627 16.32965,-2.81433 z m 38.38615,0 c 34.84372,4.28545 67.06745,20.06297 91.76023,44.24388 l -65.44952,46.40371 -0.22908,-0.0981 c -5.80924,4.2429 -13.99408,3.19016 -18.52221,-2.48708 -1.85491,-2.32577 -2.82817,-5.06044 -2.94523,-7.82122 l -0.0655,-0.0327 z m -154.59178,74.21976 60.14811,53.79951 -0.0654,0.32725 c 5.42904,4.71967 6.22963,12.90973 1.70169,18.58767 -1.85478,2.32586 -4.33755,3.88585 -7.0031,4.61419 l -0.0654,0.2618 -77.09954,22.25283 c -3.92412,-35.88222 4.53283,-70.7626 22.38374,-99.84325 z m 270.33926,0.0327 c 8.93685,14.48535 15.70428,30.66403 19.73304,48.20357 3.98044,17.32923 4.97939,34.62748 3.33792,51.34515 l -77.49224,-22.31828 -0.0654,-0.32725 c -6.93922,-1.89651 -11.20383,-8.95519 -9.58835,-16.03514 0.66186,-2.90032 2.20143,-5.35391 4.28694,-7.16672 l -0.0327,-0.16362 59.82087,-53.53771 z M 377.13006,523.023 h 24.64174 l 15.31519,19.14398 -5.49776,23.88908 -22.12194,10.63555 -22.18739,-10.66828 -5.49776,-23.88907 z m 78.99757,65.51497 c 1.04717,-0.0529 2.08976,0.0415 3.10886,0.22907 l 0.1309,-0.16362 79.75024,13.4826 c -11.67148,32.79084 -34.00528,61.19811 -63.84601,80.20839 l -30.95762,-74.77608 0.0981,-0.1309 c -2.84377,-6.60777 0.002,-14.35654 6.54495,-17.50774 1.67514,-0.80677 3.42525,-1.2535 5.17051,-1.34172 z m -133.94245,0.32725 c 6.08601,0.0853 11.5449,4.30946 12.95901,10.50465 0.66202,2.90028 0.33981,5.77395 -0.75267,8.31209 l 0.22907,0.29452 -30.63038,74.02341 C 275.35248,663.62313 252.54242,636.1077 240.34055,602.34787 l 79.06303,-13.41715 0.1309,0.16362 c 0.88436,-0.16274 1.78127,-0.24127 2.6507,-0.22907 z m 66.79124,32.43029 c 2.11999,-0.0779 4.27113,0.35707 6.31588,1.34172 2.6803,1.29069 4.75083,3.32294 6.05408,5.75955 h 0.29452 l 38.9752,70.42369 c -5.05825,1.69565 -10.25839,3.1448 -15.57699,4.3524 -29.80784,6.7679 -59.52097,4.71725 -86.4261,-4.45057 l 38.87702,-70.29279 h 0.0654 c 2.3328,-4.36094 6.75698,-6.96265 11.42094,-7.134 z"/>
  </g>

  <text x="440" y="248" fill="#e4e4e7" font-size="15" font-weight="700">Control Plane</text>
  <text x="440" y="266" fill="#a0a0a8" font-size="10">Kubernetes API Server</text>

  <!-- Gateway nodes sub-label -->
  <rect x="440" y="285" width="130" height="22" rx="5" fill="#18181b" stroke="#2a2a2e" stroke-width="0.8"/>
  <text x="505" y="300" text-anchor="middle" fill="#a0a0a8" font-size="10" font-weight="500">Gateway Nodes</text>

  <!-- ════════════════════════════════════════════════════════ -->
  <!-- BARE METAL (top center)                                 -->
  <!-- ════════════════════════════════════════════════════════ -->

  <rect x="370" y="30" width="220" height="130" rx="10" fill="url(#site-fill)" stroke="#2a2a2e" stroke-width="1.5"/>

  <!-- Server rack icon (3 stacked 1U servers) -->
  <g transform="translate(390, 52)">
    <rect x="0" y="0" width="36" height="10" rx="2" fill="#18181b" stroke="#34d399" stroke-width="1" stroke-opacity="0.6"/>
    <circle cx="28" cy="5" r="2" fill="#34d399" opacity="0.7"/>
    <rect x="4" y="3" width="12" height="4" rx="1" fill="#34d399" opacity="0.15"/>

    <rect x="0" y="14" width="36" height="10" rx="2" fill="#18181b" stroke="#34d399" stroke-width="1" stroke-opacity="0.6"/>
    <circle cx="28" cy="19" r="2" fill="#34d399" opacity="0.7"/>
    <rect x="4" y="17" width="12" height="4" rx="1" fill="#34d399" opacity="0.15"/>

    <rect x="0" y="28" width="36" height="10" rx="2" fill="#18181b" stroke="#34d399" stroke-width="1" stroke-opacity="0.6"/>
    <circle cx="28" cy="33" r="2" fill="#34d399" opacity="0.7"/>
    <rect x="4" y="31" width="12" height="4" rx="1" fill="#34d399" opacity="0.15"/>
  </g>

  <text x="440" y="68" fill="#e4e4e7" font-size="15" font-weight="700">Bare Metal</text>
  <text x="440" y="86" fill="#a0a0a8" font-size="10">On-prem servers, colocations</text>

  <!-- PXE Boot badge -->
  <rect x="440" y="100" width="70" height="20" rx="4" fill="#18181b" stroke="#34d399" stroke-width="0.8" stroke-opacity="0.5"/>
  <!-- small network boot icon -->
  <path d="M449,110 L453,106 L457,110" fill="none" stroke="#34d399" stroke-width="1" stroke-linecap="round"/>
  <line x1="453" y1="106" x2="453" y2="114" stroke="#34d399" stroke-width="1" stroke-linecap="round"/>
  <text x="461" y="114" fill="#34d399" font-size="9" font-weight="600">PXE Boot</text>

  <!-- ════════════════════════════════════════════════════════ -->
  <!-- PUBLIC CLOUD (bottom left)                              -->
  <!-- ════════════════════════════════════════════════════════ -->

  <rect x="60" y="315" width="220" height="130" rx="10" fill="url(#site-fill)" stroke="#2a2a2e" stroke-width="1.5"/>

  <!-- Cloud icon (scaled to match bare metal icon ~36px) -->
  <g transform="translate(68, 342) scale(1.4)">
    <path d="M8,22 A8,8 0 0,1 8,8 A10,8 0 0,1 28,8 A8,6 0 0,1 36,16 A6,6 0 0,1 30,22 Z"
          fill="none" stroke="#4d8eff" stroke-width="1.1" stroke-opacity="0.7"/>
    <!-- small VM squares inside cloud -->
    <rect x="12" y="12" width="5" height="5" rx="1" fill="#4d8eff" opacity="0.2" stroke="#4d8eff" stroke-width="0.4"/>
    <rect x="20" y="12" width="5" height="5" rx="1" fill="#4d8eff" opacity="0.2" stroke="#4d8eff" stroke-width="0.4"/>
    <rect x="16" y="6" width="5" height="5" rx="1" fill="#4d8eff" opacity="0.2" stroke="#4d8eff" stroke-width="0.4"/>
  </g>

  <text x="128" y="356" fill="#e4e4e7" font-size="15" font-weight="700">Public Cloud</text>
  <text x="128" y="374" fill="#a0a0a8" font-size="10">AWS, Azure, GCP instances</text>

  <!-- cloud-init badge -->
  <rect x="128" y="388" width="82" height="20" rx="4" fill="#18181b" stroke="#4d8eff" stroke-width="0.8" stroke-opacity="0.5"/>
  <!-- cloud-init icon (small cloud + arrow) -->
  <path d="M136,402 A3,3 0 0,1 136,396 A4,3 0 0,1 146,396 A3,2.5 0 0,1 149,399 A2.5,2.5 0 0,1 147,402 Z"
        fill="none" stroke="#4d8eff" stroke-width="0.8"/>
  <text x="155" y="402" fill="#4d8eff" font-size="9" font-weight="600">cloud-init</text>

  <!-- ════════════════════════════════════════════════════════ -->
  <!-- AI INFRASTRUCTURE (bottom right)                        -->
  <!-- ════════════════════════════════════════════════════════ -->

  <rect x="680" y="315" width="220" height="130" rx="10" fill="url(#site-fill)" stroke="#2a2a2e" stroke-width="1.5"/>

  <!-- GPU/chip icon (scaled to match bare metal icon ~36px) -->
  <g transform="translate(696, 333) scale(1.3)">
    <!-- chip body -->
    <rect x="6" y="4" width="24" height="20" rx="3" fill="#18181b" stroke="#a78bfa" stroke-width="1" stroke-opacity="0.7"/>
    <!-- die -->
    <rect x="12" y="9" width="12" height="10" rx="1.5" fill="#a78bfa" opacity="0.15" stroke="#a78bfa" stroke-width="0.5"/>
    <!-- pins left -->
    <line x1="2" y1="10" x2="6" y2="10" stroke="#a78bfa" stroke-width="0.8" stroke-opacity="0.5"/>
    <line x1="2" y1="15" x2="6" y2="15" stroke="#a78bfa" stroke-width="0.8" stroke-opacity="0.5"/>
    <line x1="2" y1="20" x2="6" y2="20" stroke="#a78bfa" stroke-width="0.8" stroke-opacity="0.5"/>
    <!-- pins right -->
    <line x1="30" y1="10" x2="34" y2="10" stroke="#a78bfa" stroke-width="0.8" stroke-opacity="0.5"/>
    <line x1="30" y1="15" x2="34" y2="15" stroke="#a78bfa" stroke-width="0.8" stroke-opacity="0.5"/>
    <line x1="30" y1="20" x2="34" y2="20" stroke="#a78bfa" stroke-width="0.8" stroke-opacity="0.5"/>
    <!-- pins top -->
    <line x1="14" y1="0" x2="14" y2="4" stroke="#a78bfa" stroke-width="0.8" stroke-opacity="0.5"/>
    <line x1="19" y1="0" x2="19" y2="4" stroke="#a78bfa" stroke-width="0.8" stroke-opacity="0.5"/>
    <line x1="24" y1="0" x2="24" y2="4" stroke="#a78bfa" stroke-width="0.8" stroke-opacity="0.5"/>
    <!-- pins bottom -->
    <line x1="14" y1="24" x2="14" y2="28" stroke="#a78bfa" stroke-width="0.8" stroke-opacity="0.5"/>
    <line x1="19" y1="24" x2="19" y2="28" stroke="#a78bfa" stroke-width="0.8" stroke-opacity="0.5"/>
    <line x1="24" y1="24" x2="24" y2="28" stroke="#a78bfa" stroke-width="0.8" stroke-opacity="0.5"/>
  </g>

  <text x="748" y="356" fill="#e4e4e7" font-size="15" font-weight="700">AI Infrastructure</text>
  <text x="748" y="374" fill="#a0a0a8" font-size="10">GPU providers, HPC clusters</text>

  <!-- SSH badge -->
  <rect x="748" y="388" width="56" height="20" rx="4" fill="#18181b" stroke="#a78bfa" stroke-width="0.8" stroke-opacity="0.5"/>
  <!-- terminal icon -->
  <path d="M755,394 L759,398 L755,402" fill="none" stroke="#a78bfa" stroke-width="1" stroke-linecap="round" stroke-linejoin="round"/>
  <line x1="761" y1="402" x2="767" y2="402" stroke="#a78bfa" stroke-width="1" stroke-linecap="round"/>
  <text x="772" y="402" fill="#a78bfa" font-size="9" font-weight="600">SSH</text>

  <!-- ════════════════════════════════════════════════════════ -->
  <!-- unbounded-net badge (bottom center)                     -->
  <!-- ════════════════════════════════════════════════════════ -->

  <rect x="398" y="444" width="164" height="24" rx="5" fill="#18181b" stroke="#2a2a2e" stroke-width="1"/>
  <text x="480" y="460" text-anchor="middle" fill="#a0a0a8" font-size="10" font-weight="600">powered by unbounded-net</text>

</svg>
